# xmcd
#
# Track frame offsets: 
#        150
#        12552
#        36150
#        52120
#        67275
#        84327
#        101042
#        116402
#        141190
#        163745
#        182965
#        206130
#        223745
#
# Disc length: 3312 seconds
#
# Revision: 0
# Processed by: cddbd v1.5.1PL0 Copyright (c) Steve Scherf et al.
# Submitted via: ExactAudioCopy v0.95a3
#
DISCID=cb0cee0d
DTITLE=Various Artist - Starco. Disc 1
DYEAR=1995
DGENRE=Pop
TTITLE0=Андрей Державин - Брат
TTITLE1=Андрей Сапунов - Уйти Из Дома
TTITLE2=Валерий Сюткин - Семь Тысячь Над Землёй
TTITLE3=Евгений Куликов - Моя Маленькая Девочка
TTITLE4=Дмитрий Маликов - Попробуй Изменить
TTITLE5=Игорь Мельник - Виновата Гитара
TTITLE6=Сергей Минаев - Девочка Атас
TTITLE7=Геннадий Богданов - Держа Руку На Кресте
TTITLE8=Сосо Павлиашвили - Пой Со Мной
TTITLE9=Владимир Пресняков - Стюардесса По Имени Жанна
TTITLE10=Владимир Пресняков (Старший) - Бортмеханик По Имени Вова
TTITLE11=Секрет - Сердце На Твоём Берегу
TTITLE12=А-Студио - Эти Тёплые Летние Дни
EXTD=
EXTT0=
EXTT1=
EXTT2=
EXTT3=
EXTT4=
EXTT5=
EXTT6=
EXTT7=
EXTT8=
EXTT9=
EXTT10=
EXTT11=
EXTT12=
PLAYORDER=
